# xmcd
#
# Track frame offsets: 
#        150
#        12732
#        24652
#        36835
#        67877
#        83660
#        98005
#        117135
#        131632
#        145527
#
# Disc length: 2116 seconds
#
# Revision: 0
# Processed by: cddbd v1.4b42PL1 Copyright (c) Steve Scherf et al.
# Submitted via: ExactAudioCopy v0.90a11
#
DISCID=7a08420a
DTITLE=Elvin Bishop - Best Of Elvin Bishop-Crabshaw Rising
DYEAR=1900
DGENRE=
TTITLE0=Rock My Soul
TTITLE1=So Fine
TTITLE2=Holler And Shout
TTITLE3=Hogbottom
TTITLE4=Party Till The Cows Come Home
TTITLE5=Don't Fight It (Feel It)
TTITLE6=Be With Me
TTITLE7=Stomp (Instrumental)
TTITLE8=How Much More
TTITLE9=Stealin' Watermelons
EXTD=
EXTT0=
EXTT1=
EXTT2=
EXTT3=
EXTT4=
EXTT5=
EXTT6=
EXTT7=
EXTT8=
EXTT9=
PLAYORDER=
